<?xml version="1.0" encoding="utf-8"?>
<svg version="1.1" xmlns:xlink="http://www.w3.org/1999/xlink" width="678px" height="903px" xmlns="http://www.w3.org/2000/svg">
  <g transform="matrix(1 0 0 1 -959 -56 )">
    <path d="M 0.4384615384615813 895.3938461538462  L 6.43153846153848 868.7307692307692  C 52.174615384615436 758.8169230769231  92.41384615384618 647.2315384615384  127.14923076923077 533.9746153846154  C 194.90769230769232 361.6838461538461  258.6300000000001 187.31384615384613  318.31615384615395 10.864615384615387  C 320.42179435151843 4.572365361087353  326.285537780744 0.33470204248730084  332.87076923076927 1  L 673.1307692307693 1  C 677.5338461538463 0.3461538461538467  678.9200000000001 2.3846153846153797  677.2892307692308 6.46153846153846  L 320.3953846153847 896.2499999999999  C 318.8461538461539 900.3269230769231  315.8700000000001 902.3653846153845  311.4669230769231 902  L 6.064615384615422 902  C 1.2538461538462116 902.3653846153845  -0.621538461538421 900.0415384615384  0.4384615384615813 895.3938461538462  Z " fill-rule="nonzero" fill="#231f20" stroke="none" transform="matrix(1 0 0 1 959 56 )" />
  </g>
</svg>