<?xml version="1.0" encoding="utf-8"?>
<svg version="1.1" xmlns:xlink="http://www.w3.org/1999/xlink" width="494px" height="692px" xmlns="http://www.w3.org/2000/svg">
  <g transform="matrix(1 0 0 1 -1187 -286 )">
    <path d="M 234.63307692307694 3.1330769230768847  C 235.21603316626545 1.4822326065077789  236.79680028577525 0.39545521184467697  238.54692307692324 1  L 489.76692307692315 1  C 489.7775043695183 0.44222446749645883  489.7880859484892 0.4421828546082338  489.7986675683726 0.4421828546082338  C 492.02777378557425 0.4421828546082338  493.83482141452646 2.249230483560382  493.83482141452646 4.478336700762071  C 493.83482141452646 4.980541456077759  493.7410969826117 5.4783356006760755  493.55846153846164 5.946153846153834  L 232.3092307692308 688.9123076923078  C 231.70044796264438 690.472001494884  230.1919350968359 691.4938973072057  228.5176923076923 691  L 4.3276923076923595 691  C 2.1039768468058355 691.4731795502656  0.305314027825375 689.6683673058602  0.305314027825375 687.4446388929832  C 0.305314027825375 686.9863159248499  0.38337685396470533 686.5313408637392  0.5361538461538657 686.0992307692308  L 234.63307692307694 3.1330769230768847  Z " fill-rule="nonzero" fill="#ef0052" stroke="none" transform="matrix(1 0 0 1 1187 286 )" />
  </g>
</svg>